<svg width="334" height="53" viewBox="0 0 334 53" fill="none" xmlns="http://www.w3.org/2000/svg">
<path d="M46.536 15.904C50.9733 15.904 54.4933 17.248 57.096 19.936C59.7413 22.624 61.064 26.3573 61.064 31.136V52H50.184V32.608C50.184 30.304 49.5653 28.5333 48.328 27.296C47.1333 26.016 45.4693 25.376 43.336 25.376C41.2027 25.376 39.5173 26.016 38.28 27.296C37.0853 28.5333 36.488 30.304 36.488 32.608V52H25.608V32.608C25.608 30.304 24.9893 28.5333 23.752 27.296C22.5573 26.016 20.8933 25.376 18.76 25.376C16.6267 25.376 14.9413 26.016 13.704 27.296C12.5093 28.5333 11.912 30.304 11.912 32.608V52H0.968V16.288H11.912V20.768C13.0213 19.2747 14.472 18.1013 16.264 17.248C18.056 16.352 20.0827 15.904 22.344 15.904C25.032 15.904 27.4213 16.48 29.512 17.632C31.6453 18.784 33.3093 20.4267 34.504 22.56C35.7413 20.5973 37.4267 18.9973 39.56 17.76C41.6933 16.5227 44.0187 15.904 46.536 15.904ZM102.382 33.568C102.382 34.592 102.318 35.6587 102.19 36.768H77.422C77.5927 38.9867 78.2967 40.6933 79.534 41.888C80.814 43.04 82.3713 43.616 84.206 43.616C86.9367 43.616 88.8353 42.464 89.902 40.16H101.55C100.953 42.5067 99.8647 44.6187 98.286 46.496C96.75 48.3733 94.8087 49.8453 92.462 50.912C90.1153 51.9787 87.4913 52.512 84.59 52.512C81.0913 52.512 77.9767 51.7653 75.246 50.272C72.5153 48.7787 70.382 46.6453 68.846 43.872C67.31 41.0987 66.542 37.856 66.542 34.144C66.542 30.432 67.2887 27.1893 68.782 24.416C70.318 21.6427 72.4513 19.5093 75.182 18.016C77.9127 16.5227 81.0487 15.776 84.59 15.776C88.046 15.776 91.118 16.5013 93.806 17.952C96.494 19.4027 98.5847 21.472 100.078 24.16C101.614 26.848 102.382 29.984 102.382 33.568ZM91.182 30.688C91.182 28.8107 90.542 27.3173 89.262 26.208C87.982 25.0987 86.382 24.544 84.462 24.544C82.6273 24.544 81.07 25.0773 79.79 26.144C78.5527 27.2107 77.7847 28.7253 77.486 30.688H91.182ZM119.1 4.64V52H108.156V4.64H119.1ZM132.535 12.576C130.615 12.576 129.036 12.0213 127.799 10.912C126.604 9.76 126.007 8.352 126.007 6.688C126.007 4.98133 126.604 3.57333 127.799 2.464C129.036 1.312 130.615 0.735996 132.535 0.735996C134.412 0.735996 135.948 1.312 137.143 2.464C138.38 3.57333 138.999 4.98133 138.999 6.688C138.999 8.352 138.38 9.76 137.143 10.912C135.948 12.0213 134.412 12.576 132.535 12.576ZM137.975 16.288V52H127.031V16.288H137.975ZM160.434 52.512C157.319 52.512 154.546 51.9787 152.114 50.912C149.682 49.8453 147.762 48.3947 146.354 46.56C144.946 44.6827 144.156 42.592 143.986 40.288H154.802C154.93 41.5253 155.506 42.528 156.53 43.296C157.554 44.064 158.812 44.448 160.306 44.448C161.671 44.448 162.716 44.192 163.442 43.68C164.21 43.1253 164.594 42.4213 164.594 41.568C164.594 40.544 164.06 39.7973 162.994 39.328C161.927 38.816 160.199 38.2613 157.81 37.664C155.25 37.0667 153.116 36.448 151.41 35.808C149.703 35.1253 148.231 34.08 146.994 32.672C145.756 31.2213 145.138 29.28 145.138 26.848C145.138 24.8 145.692 22.944 146.802 21.28C147.954 19.5733 149.618 18.2293 151.794 17.248C154.012 16.2667 156.636 15.776 159.666 15.776C164.146 15.776 167.666 16.8853 170.226 19.104C172.828 21.3227 174.322 24.2667 174.706 27.936H164.594C164.423 26.6987 163.868 25.7173 162.93 24.992C162.034 24.2667 160.839 23.904 159.346 23.904C158.066 23.904 157.084 24.16 156.402 24.672C155.719 25.1413 155.378 25.8027 155.378 26.656C155.378 27.68 155.911 28.448 156.978 28.96C158.087 29.472 159.794 29.984 162.098 30.496C164.743 31.1787 166.898 31.8613 168.562 32.544C170.226 33.184 171.676 34.2507 172.914 35.744C174.194 37.1947 174.855 39.1573 174.898 41.632C174.898 43.7227 174.3 45.6 173.106 47.264C171.954 48.8853 170.268 50.1653 168.05 51.104C165.874 52.0427 163.335 52.512 160.434 52.512ZM196.121 52.512C193.006 52.512 190.233 51.9787 187.801 50.912C185.369 49.8453 183.449 48.3947 182.041 46.56C180.633 44.6827 179.844 42.592 179.673 40.288H190.489C190.617 41.5253 191.193 42.528 192.217 43.296C193.241 44.064 194.5 44.448 195.993 44.448C197.358 44.448 198.404 44.192 199.129 43.68C199.897 43.1253 200.281 42.4213 200.281 41.568C200.281 40.544 199.748 39.7973 198.681 39.328C197.614 38.816 195.886 38.2613 193.497 37.664C190.937 37.0667 188.804 36.448 187.097 35.808C185.39 35.1253 183.918 34.08 182.681 32.672C181.444 31.2213 180.825 29.28 180.825 26.848C180.825 24.8 181.38 22.944 182.489 21.28C183.641 19.5733 185.305 18.2293 187.481 17.248C189.7 16.2667 192.324 15.776 195.353 15.776C199.833 15.776 203.353 16.8853 205.913 19.104C208.516 21.3227 210.009 24.2667 210.393 27.936H200.281C200.11 26.6987 199.556 25.7173 198.617 24.992C197.721 24.2667 196.526 23.904 195.033 23.904C193.753 23.904 192.772 24.16 192.089 24.672C191.406 25.1413 191.065 25.8027 191.065 26.656C191.065 27.68 191.598 28.448 192.665 28.96C193.774 29.472 195.481 29.984 197.785 30.496C200.43 31.1787 202.585 31.8613 204.249 32.544C205.913 33.184 207.364 34.2507 208.601 35.744C209.881 37.1947 210.542 39.1573 210.585 41.632C210.585 43.7227 209.988 45.6 208.793 47.264C207.641 48.8853 205.956 50.1653 203.737 51.104C201.561 52.0427 199.022 52.512 196.121 52.512ZM215.105 34.08C215.105 30.4107 215.787 27.1893 217.153 24.416C218.561 21.6427 220.459 19.5093 222.849 18.016C225.238 16.5227 227.905 15.776 230.849 15.776C233.366 15.776 235.563 16.288 237.441 17.312C239.361 18.336 240.833 19.68 241.857 21.344V16.288H252.801V52H241.857V46.944C240.79 48.608 239.297 49.952 237.377 50.976C235.499 52 233.302 52.512 230.785 52.512C227.883 52.512 225.238 51.7653 222.849 50.272C220.459 48.736 218.561 46.5813 217.153 43.808C215.787 40.992 215.105 37.7493 215.105 34.08ZM241.857 34.144C241.857 31.4133 241.089 29.2587 239.553 27.68C238.059 26.1013 236.225 25.312 234.049 25.312C231.873 25.312 230.017 26.1013 228.481 27.68C226.987 29.216 226.241 31.3493 226.241 34.08C226.241 36.8107 226.987 38.9867 228.481 40.608C230.017 42.1867 231.873 42.976 234.049 42.976C236.225 42.976 238.059 42.1867 239.553 40.608C241.089 39.0293 241.857 36.8747 241.857 34.144ZM258.542 34.08C258.542 30.4107 259.225 27.1893 260.59 24.416C261.998 21.6427 263.897 19.5093 266.286 18.016C268.675 16.5227 271.342 15.776 274.286 15.776C276.633 15.776 278.766 16.2667 280.686 17.248C282.649 18.2293 284.185 19.552 285.294 21.216V4.64H296.238V52H285.294V46.88C284.27 48.5867 282.798 49.952 280.878 50.976C279.001 52 276.803 52.512 274.286 52.512C271.342 52.512 268.675 51.7653 266.286 50.272C263.897 48.736 261.998 46.5813 260.59 43.808C259.225 40.992 258.542 37.7493 258.542 34.08ZM285.294 34.144C285.294 31.4133 284.526 29.2587 282.99 27.68C281.497 26.1013 279.662 25.312 277.486 25.312C275.31 25.312 273.454 26.1013 271.918 27.68C270.425 29.216 269.678 31.3493 269.678 34.08C269.678 36.8107 270.425 38.9867 271.918 40.608C273.454 42.1867 275.31 42.976 277.486 42.976C279.662 42.976 281.497 42.1867 282.99 40.608C284.526 39.0293 285.294 36.8747 285.294 34.144ZM318.684 52.512C315.569 52.512 312.796 51.9787 310.364 50.912C307.932 49.8453 306.012 48.3947 304.604 46.56C303.196 44.6827 302.406 42.592 302.236 40.288H313.052C313.18 41.5253 313.756 42.528 314.78 43.296C315.804 44.064 317.062 44.448 318.556 44.448C319.921 44.448 320.966 44.192 321.692 43.68C322.46 43.1253 322.844 42.4213 322.844 41.568C322.844 40.544 322.31 39.7973 321.244 39.328C320.177 38.816 318.449 38.2613 316.06 37.664C313.5 37.0667 311.366 36.448 309.66 35.808C307.953 35.1253 306.481 34.08 305.244 32.672C304.006 31.2213 303.388 29.28 303.388 26.848C303.388 24.8 303.942 22.944 305.052 21.28C306.204 19.5733 307.868 18.2293 310.044 17.248C312.262 16.2667 314.886 15.776 317.916 15.776C322.396 15.776 325.916 16.8853 328.476 19.104C331.078 21.3227 332.572 24.2667 332.956 27.936H322.844C322.673 26.6987 322.118 25.7173 321.18 24.992C320.284 24.2667 319.089 23.904 317.596 23.904C316.316 23.904 315.334 24.16 314.652 24.672C313.969 25.1413 313.628 25.8027 313.628 26.656C313.628 27.68 314.161 28.448 315.228 28.96C316.337 29.472 318.044 29.984 320.348 30.496C322.993 31.1787 325.148 31.8613 326.812 32.544C328.476 33.184 329.926 34.2507 331.164 35.744C332.444 37.1947 333.105 39.1573 333.148 41.632C333.148 43.7227 332.55 45.6 331.356 47.264C330.204 48.8853 328.518 50.1653 326.3 51.104C324.124 52.0427 321.585 52.512 318.684 52.512Z" fill="black"/>
</svg>
